<svg width="65" height="53" viewBox="0 0 65 53" fill="none" xmlns="http://www.w3.org/2000/svg">
<mask id="path-1-inside-1_1_146" fill="white">
<path fill-rule="evenodd" clip-rule="evenodd" d="M55.5914 12.0228C55.2948 11.9134 55.0598 11.678 54.962 11.3774V11.3774C52.9059 4.25579 47.2097 -0.585204 39.6929 0.279282C39.1761 0.338713 38.6606 0.425874 38.1494 0.538825C34.5671 1.33042 30.6235 1.56259 26.9563 1.42812C25.1379 1.36145 23.2134 1.5657 21.32 2.00544C16.8045 3.38182 13.6052 5.46319 11.6294 8.39791C9.95766 10.8811 8.08901 13.3723 5.81966 15.3243C2.61238 18.0831 -0.244523 22.1973 0.284376 26.2351C1.20047 33.2289 8.0367 38.1976 15.5535 37.3332C16.2406 37.3309 16.8911 37.3089 17.5067 37.268C20.326 37.081 23.2381 37.4287 25.937 38.2688C28.3874 39.0315 31.255 39.5 34.3293 39.5497C35.1081 39.5023 35.8992 39.3887 36.6886 39.2171C39.9429 38.51 43.5082 38.3868 46.839 38.4283C48.3159 38.4466 50.0517 38.3172 52.0951 38.0173C52.6377 37.9376 53.1734 37.8058 53.6891 37.6194C61.5049 34.7954 65.6611 30.3338 64.7575 23.4353C64.1167 18.543 60.0505 13.6678 55.5914 12.0228Z"/>
</mask>
<path fill-rule="evenodd" clip-rule="evenodd" d="M55.5914 12.0228C55.2948 11.9134 55.0598 11.678 54.962 11.3774V11.3774C52.9059 4.25579 47.2097 -0.585204 39.6929 0.279282C39.1761 0.338713 38.6606 0.425874 38.1494 0.538825C34.5671 1.33042 30.6235 1.56259 26.9563 1.42812C25.1379 1.36145 23.2134 1.5657 21.32 2.00544C16.8045 3.38182 13.6052 5.46319 11.6294 8.39791C9.95766 10.8811 8.08901 13.3723 5.81966 15.3243C2.61238 18.0831 -0.244523 22.1973 0.284376 26.2351C1.20047 33.2289 8.0367 38.1976 15.5535 37.3332C16.2406 37.3309 16.8911 37.3089 17.5067 37.268C20.326 37.081 23.2381 37.4287 25.937 38.2688C28.3874 39.0315 31.255 39.5 34.3293 39.5497C35.1081 39.5023 35.8992 39.3887 36.6886 39.2171C39.9429 38.51 43.5082 38.3868 46.839 38.4283C48.3159 38.4466 50.0517 38.3172 52.0951 38.0173C52.6377 37.9376 53.1734 37.8058 53.6891 37.6194C61.5049 34.7954 65.6611 30.3338 64.7575 23.4353C64.1167 18.543 60.0505 13.6678 55.5914 12.0228Z" fill="#F8F8F8"/>
<path d="M39.6929 0.279282L39.8082 1.27273L39.6929 0.279282ZM21.32 2.00544L21.0928 1.03136C21.0708 1.03646 21.049 1.0423 21.0275 1.04887L21.32 2.00544ZM0.284376 26.2351L1.27591 26.1062L1.27591 26.1062L0.284376 26.2351ZM15.5535 37.3332L15.5492 36.3332C15.5121 36.3333 15.475 36.3355 15.4382 36.3397L15.5535 37.3332ZM34.3293 39.5497L34.3142 40.5495C34.3398 40.55 34.3654 40.5494 34.391 40.5478L34.3293 39.5497ZM64.7575 23.4353L63.766 23.5641L63.766 23.5641L64.7575 23.4353ZM17.5067 37.268L17.5739 38.2658L17.5067 37.268ZM25.937 38.2688L25.6407 39.2235L25.937 38.2688ZM38.1494 0.538825L37.9326 -0.437621L38.1494 0.538825ZM26.9563 1.42812L26.9919 0.428804L26.9563 1.42812ZM36.6886 39.2171L36.4753 38.2399L36.6886 39.2171ZM52.0951 38.0173L51.9488 37.0279L52.0951 38.0173ZM53.6891 37.6194L53.3484 36.6789L53.6891 37.6194ZM55.9228 11.1009C53.7624 3.61815 47.6839 -1.64645 39.5776 -0.714162L39.8082 1.27273C46.7355 0.47604 52.0494 4.89343 54.0013 11.6538L55.9228 11.1009ZM39.5776 -0.714162C39.0256 -0.650685 38.4762 -0.557736 37.9326 -0.437621L38.3662 1.51527C38.8449 1.40948 39.3266 1.32811 39.8082 1.27273L39.5776 -0.714162ZM26.9919 0.428804C25.0756 0.358543 23.0625 0.573899 21.0928 1.03136L21.5472 2.97951C23.3643 2.55751 25.2001 2.36436 26.9207 2.42744L26.9919 0.428804ZM21.0275 1.04887C16.3733 2.46752 12.9439 4.65398 10.7997 7.83885L12.4591 8.95698C14.2665 6.27241 17.2357 4.29611 21.6125 2.962L21.0275 1.04887ZM5.16708 14.5659C3.49531 16.0039 1.89586 17.8099 0.777771 19.8117C-0.339069 21.8113 -1.00799 24.0673 -0.707161 26.3639L1.27591 26.1062C1.04785 24.3651 1.54293 22.5451 2.52413 20.7884C3.50409 19.0339 4.93673 17.4035 6.47225 16.0827L5.16708 14.5659ZM-0.707161 26.3639C0.28821 33.9629 7.67468 39.246 15.6688 38.3266L15.4382 36.3397C8.39871 37.1493 2.11273 32.4948 1.27591 26.1062L-0.707161 26.3639ZM15.5578 38.3331C16.2642 38.3309 16.9358 38.3082 17.5739 38.2658L17.4394 36.2702C16.8464 36.3096 16.217 36.331 15.5492 36.3332L15.5578 38.3331ZM25.6407 39.2235C28.1883 40.0166 31.1511 40.4985 34.3142 40.5495L34.3444 38.5498C31.3588 38.5016 28.5864 38.0465 26.2333 37.314L25.6407 39.2235ZM34.391 40.5478C35.2252 40.4971 36.0671 40.3758 36.902 40.1943L36.4753 38.2399C35.7313 38.4016 34.991 38.5076 34.2675 38.5515L34.391 40.5478ZM51.9488 37.0279C49.9429 37.3224 48.2614 37.4459 46.8504 37.4283L46.8276 39.4282C48.3703 39.4474 50.1606 39.3121 52.2414 39.0067L51.9488 37.0279ZM63.766 23.5641C64.1848 26.7619 63.434 29.3211 61.7182 31.4223C59.974 33.5585 57.1681 35.2988 53.3484 36.6789L54.0298 38.5599C58.0259 37.1161 61.206 35.2135 63.268 32.6882C65.3584 30.1281 66.2338 27.0072 65.749 23.3065L63.766 23.5641ZM55.2461 12.9609C57.2783 13.7106 59.2686 15.2189 60.8304 17.1414C62.3919 19.0634 63.4742 21.3366 63.766 23.5641L65.749 23.3065C65.4 20.6417 64.1288 18.0312 62.3822 15.8813C60.6359 13.7318 58.3636 11.98 55.9366 11.0847L55.2461 12.9609ZM17.5739 38.2658C20.2698 38.0869 23.0587 38.4198 25.6407 39.2235L26.2333 37.314C23.4176 36.4375 20.3823 36.075 17.4394 36.2702L17.5739 38.2658ZM37.9326 -0.437621C34.4533 0.331218 30.5979 0.561021 26.9919 0.428804L26.9207 2.42744C30.6492 2.56415 34.6809 2.32962 38.3662 1.51527L37.9326 -0.437621ZM36.902 40.1943C40.0443 39.5115 43.5193 39.387 46.8276 39.4282L46.8504 37.4283C43.4971 37.3866 39.8416 37.5084 36.4753 38.2399L36.902 40.1943ZM10.7997 7.83885C9.14094 10.3027 7.33231 12.7034 5.16708 14.5659L6.47225 16.0827C8.84571 14.0411 10.7744 11.4594 12.4591 8.95698L10.7997 7.83885ZM52.2414 39.0067C52.847 38.9178 53.4481 38.7701 54.0298 38.5599L53.3484 36.6789C52.8987 36.8414 52.4284 36.9575 51.9488 37.0279L52.2414 39.0067ZM54.011 11.6856C54.2082 12.292 54.6761 12.7506 55.2461 12.9609L55.9366 11.0847C55.9262 11.0808 55.9192 11.0756 55.9155 11.0718C55.9121 11.0683 55.9124 11.0672 55.913 11.0691L54.011 11.6856Z" fill="#FFEDED" fill-opacity="0.04" mask="url(#path-1-inside-1_1_146)"/>
<path d="M25.9286 51.7514C24.3978 53.1713 21.7576 52.431 21.7286 49.8422C21.7066 47.8722 24.681 45.0098 26.6165 44.0085C27.4614 43.5715 28.2531 44.1724 28.31 45.1056C28.4552 47.4831 27.189 50.5824 25.9286 51.7514Z" fill="url(#paint0_linear_1_146)"/>
<path d="M13.568 51.7514C12.0372 53.1713 9.397 52.431 9.36806 49.8422C9.34604 47.8722 12.3204 45.0098 14.2559 44.0085C15.1008 43.5715 15.8925 44.1724 15.9495 45.1056C16.0946 47.4831 14.8284 50.5824 13.568 51.7514Z" fill="url(#paint1_linear_1_146)"/>
<path d="M38.2892 51.7514C36.7584 53.1713 34.1182 52.431 34.0892 49.8422C34.0672 47.8722 37.0416 45.0098 38.9771 44.0085C39.822 43.5715 40.6136 44.1724 40.6706 45.1056C40.8158 47.4831 39.5496 50.5824 38.2892 51.7514Z" fill="url(#paint2_linear_1_146)"/>
<path d="M50.6498 51.7514C49.119 53.1713 46.4787 52.431 46.4498 49.8422C46.4278 47.8722 49.4022 45.0098 51.3377 44.0085C52.1826 43.5715 52.9742 44.1724 53.0312 45.1056C53.1764 47.4831 51.9102 50.5824 50.6498 51.7514Z" fill="url(#paint3_linear_1_146)"/>
<defs>
<linearGradient id="paint0_linear_1_146" x1="25.1109" y1="43.8992" x2="25.8746" y2="53.499" gradientUnits="userSpaceOnUse">
<stop stop-color="#00D1FF" stop-opacity="0.975625"/>
<stop offset="0.503027" stop-color="#4FDFFF" stop-opacity="0.975625"/>
<stop offset="1" stop-color="#7CE7FF" stop-opacity="0.975625"/>
</linearGradient>
<linearGradient id="paint1_linear_1_146" x1="12.7503" y1="43.8992" x2="13.514" y2="53.499" gradientUnits="userSpaceOnUse">
<stop stop-color="#00D1FF" stop-opacity="0.975625"/>
<stop offset="0.503027" stop-color="#4FDFFF" stop-opacity="0.975625"/>
<stop offset="1" stop-color="#7CE7FF" stop-opacity="0.975625"/>
</linearGradient>
<linearGradient id="paint2_linear_1_146" x1="37.4715" y1="43.8992" x2="38.2352" y2="53.499" gradientUnits="userSpaceOnUse">
<stop stop-color="#00D1FF" stop-opacity="0.975625"/>
<stop offset="0.503027" stop-color="#4FDFFF" stop-opacity="0.975625"/>
<stop offset="1" stop-color="#7CE7FF" stop-opacity="0.975625"/>
</linearGradient>
<linearGradient id="paint3_linear_1_146" x1="49.832" y1="43.8992" x2="50.5958" y2="53.499" gradientUnits="userSpaceOnUse">
<stop stop-color="#00D1FF" stop-opacity="0.975625"/>
<stop offset="0.503027" stop-color="#4FDFFF" stop-opacity="0.975625"/>
<stop offset="1" stop-color="#7CE7FF" stop-opacity="0.975625"/>
</linearGradient>
</defs>
</svg>
