<svg width="65" height="54" viewBox="0 0 65 54" fill="none" xmlns="http://www.w3.org/2000/svg">
<mask id="path-1-inside-1_1_148" fill="white">
<path fill-rule="evenodd" clip-rule="evenodd" d="M55.573 11.4475C55.2874 11.3477 55.0595 11.1253 54.9617 10.8389V10.8389C52.9057 4.05399 47.2096 -0.55818 39.6929 0.265443C39.0974 0.330689 38.5036 0.431014 37.9162 0.563592C34.4845 1.33818 30.7319 1.54246 27.2163 1.37086C25.322 1.2784 23.3042 1.47107 21.3204 1.91001C16.9018 3.19323 13.7435 5.11963 11.7587 7.82166C9.975 10.25 8.06191 12.7436 5.74083 14.6648C2.5661 17.2925 -0.239328 21.1793 0.285184 24.9944C1.20126 31.6576 8.03735 36.3915 15.554 35.5679C16.3149 35.5655 17.0307 35.54 17.7041 35.4927C20.4036 35.3029 23.1841 35.6231 25.7751 36.4105C28.2607 37.166 31.1871 37.6313 34.3294 37.6796C35.1796 37.6304 36.0443 37.5059 36.9056 37.3165C40.021 36.6315 43.4124 36.5354 46.6027 36.6072C48.1378 36.6417 49.9606 36.5195 52.1287 36.2149C52.6488 36.1419 53.1631 36.0211 53.6596 35.8506C61.4942 33.1606 65.6618 28.9075 64.757 22.3269C64.1154 17.6596 60.0391 13.0086 55.573 11.4475Z"/>
</mask>
<path fill-rule="evenodd" clip-rule="evenodd" d="M55.573 11.4475C55.2874 11.3477 55.0595 11.1253 54.9617 10.8389V10.8389C52.9057 4.05399 47.2096 -0.55818 39.6929 0.265443C39.0974 0.330689 38.5036 0.431014 37.9162 0.563592C34.4845 1.33818 30.7319 1.54246 27.2163 1.37086C25.322 1.2784 23.3042 1.47107 21.3204 1.91001C16.9018 3.19323 13.7435 5.11963 11.7587 7.82166C9.975 10.25 8.06191 12.7436 5.74083 14.6648C2.5661 17.2925 -0.239328 21.1793 0.285184 24.9944C1.20126 31.6576 8.03735 36.3915 15.554 35.5679C16.3149 35.5655 17.0307 35.54 17.7041 35.4927C20.4036 35.3029 23.1841 35.6231 25.7751 36.4105C28.2607 37.166 31.1871 37.6313 34.3294 37.6796C35.1796 37.6304 36.0443 37.5059 36.9056 37.3165C40.021 36.6315 43.4124 36.5354 46.6027 36.6072C48.1378 36.6417 49.9606 36.5195 52.1287 36.2149C52.6488 36.1419 53.1631 36.0211 53.6596 35.8506C61.4942 33.1606 65.6618 28.9075 64.757 22.3269C64.1154 17.6596 60.0391 13.0086 55.573 11.4475Z" fill="#F8F8F8"/>
<path d="M39.6929 0.265443L39.8037 1.25948L39.8037 1.25948L39.6929 0.265443ZM21.3204 1.91001L21.1025 0.933628C21.0814 0.938294 21.0605 0.943644 21.0398 0.949667L21.3204 1.91001ZM0.285184 24.9944L-0.705509 25.1287L0.285184 24.9944ZM15.554 35.5679L15.549 34.5679C15.5136 34.568 15.4783 34.57 15.4432 34.5738L15.554 35.5679ZM34.3294 37.6796L34.316 38.6795C34.3404 38.6799 34.3648 38.6793 34.3891 38.6779L34.3294 37.6796ZM64.757 22.3269L65.7477 22.1926L65.7477 22.1926L64.757 22.3269ZM17.7041 35.4927L17.6321 34.4951L17.7041 35.4927ZM25.7751 36.4105L25.486 37.3673L25.7751 36.4105ZM37.9162 0.563592L37.6942 -0.411871L37.9162 0.563592ZM36.9056 37.3165L37.1222 38.2932L36.9056 37.3165ZM52.1287 36.2149L51.9877 35.2247L52.1287 36.2149ZM53.6596 35.8506L53.986 36.7965L53.6596 35.8506ZM55.573 11.4475L55.2447 12.3914L55.573 11.4475ZM55.9187 10.5506C53.745 3.37731 47.6498 -1.6126 39.5821 -0.728593L39.8037 1.25948C46.7693 0.496241 52.0664 4.73067 54.0047 11.1272L55.9187 10.5506ZM39.5821 -0.728593C38.948 -0.659111 38.317 -0.552437 37.6942 -0.411871L38.1382 1.53906C38.6902 1.41447 39.2469 1.32049 39.8037 1.25948L39.5821 -0.728593ZM27.2631 0.372064C25.2699 0.274772 23.1626 0.477788 21.1025 0.933628L21.5382 2.8864C23.4457 2.46435 25.3741 2.28202 27.1695 2.36965L27.2631 0.372064ZM21.0398 0.949667C16.4945 2.26967 13.1109 4.29002 10.9524 7.22868L12.5651 8.41465C14.376 5.94924 17.3091 4.11679 21.601 2.87036L21.0398 0.949667ZM5.1023 13.894C3.44729 15.2638 1.86598 16.979 0.760907 18.8807C-0.342749 20.7799 -1.00762 22.9312 -0.705509 25.1287L1.27588 24.86C1.05348 23.2424 1.52906 21.5428 2.49068 19.888C3.45087 18.2356 4.85963 16.6935 6.37935 15.4356L5.1023 13.894ZM-0.705509 25.1287C0.298519 32.4316 7.71803 37.4327 15.6648 36.5619L15.4432 34.5738C8.35668 35.3503 2.10401 30.8835 1.27588 24.86L-0.705509 25.1287ZM15.559 36.5678C16.3402 36.5654 17.0785 36.5392 17.7761 36.4902L17.6321 34.4951C16.9829 34.5408 16.2895 34.5656 15.549 34.5679L15.559 36.5678ZM25.486 37.3673C28.0677 38.1519 31.0875 38.6298 34.316 38.6795L34.3429 36.6798C31.2866 36.6327 28.4536 36.18 26.0642 35.4538L25.486 37.3673ZM34.3891 38.6779C35.2969 38.6254 36.2141 38.4928 37.1222 38.2932L36.6891 36.3398C35.8745 36.5189 35.0623 36.6354 34.2697 36.6813L34.3891 38.6779ZM51.9877 35.2247C49.857 35.524 48.0902 35.6404 46.6233 35.6074L46.5822 37.6069C48.1854 37.643 50.0642 37.5151 52.2697 37.2052L51.9877 35.2247ZM63.7664 22.4613C64.1819 25.484 63.4381 27.9021 61.7263 29.8955C59.981 31.928 57.168 33.5881 53.3332 34.9048L53.986 36.7965C57.9858 35.4232 61.1738 33.6118 63.2448 31.2001C65.3493 28.7492 66.2369 25.7504 65.7477 22.1926L63.7664 22.4613ZM55.2447 12.3914C57.2852 13.1047 59.2783 14.5428 60.8392 16.3708C62.4009 18.1999 63.477 20.3569 63.7664 22.4613L65.7477 22.1926C65.3954 19.6296 64.1125 17.1274 62.3592 15.0739C60.605 13.0194 58.3269 11.3514 55.9014 10.5036L55.2447 12.3914ZM17.7761 36.4902C20.3523 36.3091 23.0105 36.6149 25.486 37.3673L26.0642 35.4538C23.3577 34.6313 20.4548 34.2967 17.6321 34.4951L17.7761 36.4902ZM37.6942 -0.411871C34.3712 0.338191 30.7123 0.54042 27.2631 0.372064L27.1695 2.36965C30.7516 2.5445 34.5978 2.33818 38.1382 1.53906L37.6942 -0.411871ZM37.1222 38.2932C40.1201 37.634 43.4169 37.5357 46.5822 37.6069L46.6233 35.6074C43.4079 35.5351 39.9218 35.629 36.6891 36.3398L37.1222 38.2932ZM10.9524 7.22868C9.16685 9.65948 7.31783 12.0602 5.1023 13.894L6.37935 15.4356C8.80598 13.4271 10.7831 10.8406 12.5651 8.41465L10.9524 7.22868ZM52.2697 37.2052C52.8498 37.1237 53.4264 36.9886 53.986 36.7965L53.3332 34.9048C52.8998 35.0536 52.4477 35.16 51.9877 35.2247L52.2697 37.2052ZM54.0154 11.1603C54.2166 11.7499 54.6806 12.1943 55.2447 12.3914L55.9014 10.5036C55.8988 10.5027 55.8985 10.5019 55.8999 10.5033C55.9016 10.505 55.9054 10.5096 55.9081 10.5176L54.0154 11.1603Z" fill="#FFEDED" fill-opacity="0.04" mask="url(#path-1-inside-1_1_148)"/>
<path d="M17.3545 45.7827C17.3545 46.9148 16.2047 47.8325 14.9071 47.8325C13.6095 47.8325 12.5575 46.9148 12.5575 45.7827C12.5575 44.6506 13.5116 43.6474 14.8092 43.6474C16.1068 43.6474 17.3545 44.6506 17.3545 45.7827Z" fill="url(#paint0_linear_1_148)"/>
<path d="M26.2289 45.8766C26.2289 46.986 25.198 48.0528 23.9263 48.0528C22.6547 48.0528 21.4319 46.986 21.4319 45.8766C21.4319 44.7671 22.6547 43.8677 23.9263 43.8677C25.198 43.8677 26.2289 44.7671 26.2289 45.8766Z" fill="url(#paint1_linear_1_148)"/>
<path d="M35.3431 45.8923C35.3431 47.0104 34.1203 47.8325 32.8487 47.8325C31.577 47.8325 30.5461 47.0104 30.5461 45.8923C30.5461 44.7742 31.577 43.8677 32.8487 43.8677C34.1203 43.8677 35.3431 44.7742 35.3431 45.8923Z" fill="url(#paint2_linear_1_148)"/>
<path d="M44.5605 46.048C44.5605 47.2283 43.5187 48.1851 42.2335 48.1851C40.9483 48.1851 40.0034 47.3173 40.0034 46.1371C40.0034 44.9568 40.9483 44 42.2335 44C43.5187 44 44.5605 44.8678 44.5605 46.048Z" fill="url(#paint3_linear_1_148)"/>
<path d="M53.0918 45.7236C53.0918 46.8417 52.0717 47.8325 50.8133 47.8325C49.5548 47.8325 48.5347 47.0104 48.5347 45.8923C48.5347 44.7742 49.4599 43.8677 50.7183 43.8677C51.9767 43.8677 53.0918 44.6054 53.0918 45.7236Z" fill="url(#paint4_linear_1_148)"/>
<path d="M27.671 53.0245C26.6381 53.9378 24.8564 53.4616 24.8369 51.7966C24.8235 50.6571 26.4452 49.0536 27.7219 48.2737C28.53 47.7801 29.3296 48.3151 29.279 49.236C29.1998 50.6771 28.4339 52.3501 27.671 53.0245Z" fill="url(#paint5_linear_1_148)"/>
<path d="M18.4886 53.0245C17.4556 53.9378 15.674 53.4616 15.6545 51.7966C15.6411 50.6571 17.2628 49.0536 18.5395 48.2737C19.3476 47.7801 20.1472 48.3151 20.0966 49.236C20.0174 50.6771 19.2514 52.3501 18.4886 53.0245Z" fill="url(#paint6_linear_1_148)"/>
<path d="M36.7482 53.0245C35.7152 53.9378 33.9335 53.4616 33.914 51.7966C33.9007 50.6571 35.5224 49.0536 36.799 48.2737C37.6072 47.7801 38.4068 48.3151 38.3562 49.236C38.277 50.6771 37.511 52.3501 36.7482 53.0245Z" fill="url(#paint7_linear_1_148)"/>
<path d="M45.8253 53.1969C44.7923 54.1102 43.0107 53.634 42.9911 51.969C42.9778 50.8295 44.5995 49.226 45.8762 48.4462C46.6843 47.9525 47.4839 48.4875 47.4333 49.4085C47.3541 50.8496 46.5881 52.5226 45.8253 53.1969Z" fill="url(#paint8_linear_1_148)"/>
<defs>
<linearGradient id="paint0_linear_1_148" x1="12.607" y1="43.042" x2="16.6494" y2="47.6865" gradientUnits="userSpaceOnUse">
<stop stop-color="#CACACA"/>
<stop offset="1" stop-color="#F2F2F2"/>
</linearGradient>
<linearGradient id="paint1_linear_1_148" x1="21.4814" y1="43.2622" x2="25.5238" y2="47.9067" gradientUnits="userSpaceOnUse">
<stop stop-color="#CACACA"/>
<stop offset="1" stop-color="#F2F2F2"/>
</linearGradient>
<linearGradient id="paint2_linear_1_148" x1="30.5956" y1="43.2941" x2="34.3914" y2="47.8975" gradientUnits="userSpaceOnUse">
<stop stop-color="#CACACA"/>
<stop offset="1" stop-color="#F2F2F2"/>
</linearGradient>
<linearGradient id="paint3_linear_1_148" x1="40.0504" y1="43.3945" x2="44.1163" y2="47.8324" gradientUnits="userSpaceOnUse">
<stop stop-color="#CACACA"/>
<stop offset="1" stop-color="#F2F2F2"/>
</linearGradient>
<linearGradient id="paint4_linear_1_148" x1="48.5817" y1="43.2941" x2="52.4099" y2="47.7047" gradientUnits="userSpaceOnUse">
<stop stop-color="#CACACA"/>
<stop offset="1" stop-color="#F2F2F2"/>
</linearGradient>
<linearGradient id="paint5_linear_1_148" x1="27.1192" y1="47.9742" x2="27.5877" y2="54.1521" gradientUnits="userSpaceOnUse">
<stop stop-color="#00D1FF" stop-opacity="0.975625"/>
<stop offset="0.503027" stop-color="#4FDFFF" stop-opacity="0.975625"/>
<stop offset="1" stop-color="#7CE7FF" stop-opacity="0.975625"/>
</linearGradient>
<linearGradient id="paint6_linear_1_148" x1="17.9368" y1="47.9742" x2="18.4053" y2="54.1521" gradientUnits="userSpaceOnUse">
<stop stop-color="#00D1FF" stop-opacity="0.975625"/>
<stop offset="0.503027" stop-color="#4FDFFF" stop-opacity="0.975625"/>
<stop offset="1" stop-color="#7CE7FF" stop-opacity="0.975625"/>
</linearGradient>
<linearGradient id="paint7_linear_1_148" x1="36.1964" y1="47.9742" x2="36.6648" y2="54.1521" gradientUnits="userSpaceOnUse">
<stop stop-color="#00D1FF" stop-opacity="0.975625"/>
<stop offset="0.503027" stop-color="#4FDFFF" stop-opacity="0.975625"/>
<stop offset="1" stop-color="#7CE7FF" stop-opacity="0.975625"/>
</linearGradient>
<linearGradient id="paint8_linear_1_148" x1="45.2735" y1="48.1466" x2="45.742" y2="54.3245" gradientUnits="userSpaceOnUse">
<stop stop-color="#00D1FF" stop-opacity="0.975625"/>
<stop offset="0.503027" stop-color="#4FDFFF" stop-opacity="0.975625"/>
<stop offset="1" stop-color="#7CE7FF" stop-opacity="0.975625"/>
</linearGradient>
</defs>
</svg>
