<svg width="63" height="60" viewBox="0 0 63 60" fill="none" xmlns="http://www.w3.org/2000/svg">
<path d="M1.5 30C1.5 14.3966 14.9336 1.5 31.5 1.5C48.0664 1.5 61.5 14.3966 61.5 30C61.5 45.6034 48.0664 58.5 31.5 58.5C14.9336 58.5 1.5 45.6034 1.5 30ZM34.7395 42.1862L44.1895 33.1862C46.0702 31.3951 46.0702 28.6049 44.1895 26.8138L34.7395 17.8138C32.9002 16.0621 30.0998 16.0621 28.2605 17.8138C26.3798 19.6049 26.3798 22.3951 28.2605 24.1862L29.64 25.5H22.05C20.7854 25.5 19.6061 25.9061 18.7318 26.7388C17.8509 27.5778 17.4 28.7365 17.4 30C17.4 31.2635 17.8509 32.4222 18.7318 33.2612C19.6061 34.0939 20.7854 34.5 22.05 34.5H29.64L28.2605 35.8138C26.3798 37.6049 26.3798 40.3951 28.2605 42.1862C30.0998 43.9379 32.9002 43.9379 34.7395 42.1862Z" fill="white" stroke="black" stroke-width="3"/>
</svg>
