<svg width="9" height="7" viewBox="0 0 9 7" fill="none" xmlns="http://www.w3.org/2000/svg">
<path d="M8.71 2.79409C8.80104 2.88919 8.87241 3.00134 8.92 3.12409C9.02002 3.36755 9.02002 3.64063 8.92 3.88409C8.87241 4.00684 8.80104 4.11899 8.71 4.21409L6.21 6.71409C6.11704 6.80782 6.00644 6.88221 5.88458 6.93298C5.76272 6.98375 5.63201 7.00989 5.5 7.00989C5.36799 7.00989 5.23728 6.98375 5.11542 6.93298C4.99357 6.88221 4.88296 6.80782 4.79 6.71409C4.69627 6.62113 4.62188 6.51053 4.57111 6.38867C4.52034 6.26681 4.4942 6.1361 4.4942 6.00409C4.4942 5.87208 4.52034 5.74137 4.57111 5.61951C4.62188 5.49766 4.69627 5.38705 4.79 5.29409L5.59 4.50409H1C0.734784 4.50409 0.48043 4.39873 0.292893 4.2112C0.105357 4.02366 0 3.76931 0 3.50409C0 3.23887 0.105357 2.98452 0.292893 2.79698C0.48043 2.60945 0.734784 2.50409 1 2.50409H5.59L4.79 1.71409C4.6017 1.52579 4.49591 1.27039 4.49591 1.00409C4.49591 0.73779 4.6017 0.482395 4.79 0.294091C4.9783 0.105788 5.2337 0 5.5 0C5.7663 0 6.0217 0.105788 6.21 0.294091L8.71 2.79409Z" fill="black"/>
</svg>
