<svg width="65" height="53" viewBox="0 0 65 53" fill="none" xmlns="http://www.w3.org/2000/svg">
<mask id="path-1-inside-1_1_147" fill="white">
<path fill-rule="evenodd" clip-rule="evenodd" d="M55.5804 11.6719C55.2905 11.5683 55.0597 11.3409 54.962 11.049V11.049C52.9059 4.13296 47.2097 -0.568315 39.6929 0.27122C39.1281 0.334294 38.5648 0.429528 38.0072 0.554466C34.5166 1.33645 30.6898 1.55125 27.1148 1.39324C25.2499 1.31081 23.2685 1.50809 21.32 1.94756C16.8633 3.26681 13.6887 5.25299 11.7072 8.04461C9.96734 10.4958 8.07172 12.9891 5.77064 14.9231C2.58334 17.6019 -0.241827 21.5766 0.284376 25.4779C1.20047 32.2698 8.0367 37.0952 15.5535 36.2557C16.2854 36.2534 16.9758 36.2292 17.6266 36.1844C20.3729 35.9955 23.2052 36.3263 25.8383 37.1342C28.3102 37.8927 31.2136 38.3593 34.3293 38.4082C35.1516 38.3597 35.9876 38.2393 36.8209 38.0568C39.9905 37.3626 43.4499 37.2565 46.6952 37.3169C48.2078 37.3451 49.9966 37.22 52.1156 36.9171C52.6445 36.8415 53.1672 36.7165 53.6713 36.5399C61.4986 33.7977 65.6618 29.4634 64.7575 22.7589C64.1161 18.0039 60.0438 13.2655 55.5804 11.6719Z"/>
</mask>
<path fill-rule="evenodd" clip-rule="evenodd" d="M55.5804 11.6719C55.2905 11.5683 55.0597 11.3409 54.962 11.049V11.049C52.9059 4.13296 47.2097 -0.568315 39.6929 0.27122C39.1281 0.334294 38.5648 0.429528 38.0072 0.554466C34.5166 1.33645 30.6898 1.55125 27.1148 1.39324C25.2499 1.31081 23.2685 1.50809 21.32 1.94756C16.8633 3.26681 13.6887 5.25299 11.7072 8.04461C9.96734 10.4958 8.07172 12.9891 5.77064 14.9231C2.58334 17.6019 -0.241827 21.5766 0.284376 25.4779C1.20047 32.2698 8.0367 37.0952 15.5535 36.2557C16.2854 36.2534 16.9758 36.2292 17.6266 36.1844C20.3729 35.9955 23.2052 36.3263 25.8383 37.1342C28.3102 37.8927 31.2136 38.3593 34.3293 38.4082C35.1516 38.3597 35.9876 38.2393 36.8209 38.0568C39.9905 37.3626 43.4499 37.2565 46.6952 37.3169C48.2078 37.3451 49.9966 37.22 52.1156 36.9171C52.6445 36.8415 53.1672 36.7165 53.6713 36.5399C61.4986 33.7977 65.6618 29.4634 64.7575 22.7589C64.1161 18.0039 60.0438 13.2655 55.5804 11.6719Z" fill="#F8F8F8"/>
<path d="M39.6929 0.27122L39.8054 1.26503L39.8054 1.26503L39.6929 0.27122ZM21.32 1.94756L21.0985 0.972063C21.0771 0.976896 21.0558 0.982435 21.0348 0.98867L21.32 1.94756ZM0.284376 25.4779L-0.70666 25.61L0.284376 25.4779ZM15.5535 36.2557L15.5488 35.2557C15.5128 35.2558 15.4768 35.2578 15.441 35.2618L15.5535 36.2557ZM34.3293 38.4082L34.3152 39.4081C34.34 39.4085 34.3649 39.4079 34.3898 39.4065L34.3293 38.4082ZM64.7575 22.7589L65.7485 22.6268L65.7485 22.6268L64.7575 22.7589ZM17.6266 36.1844L17.6968 37.182L17.6266 36.1844ZM25.8383 37.1342L25.5463 38.0902L25.8383 37.1342ZM27.1148 1.39324L27.1574 0.394226L27.1148 1.39324ZM36.8209 38.0568L36.6055 37.08L36.8209 38.0568ZM46.6952 37.3169L46.6781 38.3168L46.6952 37.3169ZM52.1156 36.9171L51.9726 35.9272L52.1156 36.9171ZM53.6713 36.5399L53.3393 35.5961L53.6713 36.5399ZM55.5804 11.6719L55.9154 10.7302L55.5804 11.6719ZM55.9205 10.7654C53.7521 3.47141 47.6633 -1.62536 39.5803 -0.72259L39.8054 1.26503C46.756 0.48873 52.0597 4.7945 54.0035 11.3326L55.9205 10.7654ZM39.5803 -0.72259C38.9783 -0.655343 38.3791 -0.553966 37.7871 -0.421348L38.2272 1.53028C38.7506 1.41302 39.278 1.32393 39.8054 1.26503L39.5803 -0.72259ZM27.1574 0.394226C25.194 0.307441 23.1234 0.515365 21.0985 0.972063L21.5414 2.92306C23.4136 2.50082 25.3059 2.31418 27.0722 2.39225L27.1574 0.394226ZM21.0348 0.98867C16.4468 2.34678 13.0448 4.4312 10.8915 7.46497L12.523 8.62425C14.3326 6.07478 17.2798 4.18684 21.6052 2.90646L21.0348 0.98867ZM5.12653 14.1571C3.46503 15.5536 1.87676 17.304 0.766723 19.2445C-0.341967 21.1827 -1.0082 23.3744 -0.70666 25.61L1.27541 25.3457C1.05075 23.6801 1.534 21.9338 2.50317 20.2396C3.47099 18.5477 4.88896 16.9714 6.41476 15.689L5.12653 14.1571ZM-0.70666 25.61C0.293922 33.0283 7.70052 38.1391 15.666 37.2495L15.441 35.2618C8.37288 36.0513 2.10702 31.5113 1.27541 25.3457L-0.70666 25.61ZM15.5582 37.2556C16.3101 37.2533 17.0223 37.2284 17.6968 37.182L17.5565 35.1868C16.9292 35.2299 16.2608 35.2534 15.5488 35.2557L15.5582 37.2556ZM25.5463 38.0902C28.1148 38.8783 31.1123 39.3578 34.3152 39.4081L34.3434 37.4083C31.3149 37.3608 28.5056 36.9071 26.1303 36.1782L25.5463 38.0902ZM34.3898 39.4065C35.2688 39.3546 36.1567 39.2263 37.0363 39.0337L36.6055 37.08C35.8184 37.2523 35.0344 37.3648 34.2688 37.41L34.3898 39.4065ZM51.9726 35.9272C49.891 36.2248 48.1576 36.3441 46.7123 36.3171L46.6781 38.3168C48.258 38.3462 50.1022 38.2153 52.2587 37.907L51.9726 35.9272ZM63.7665 22.8911C64.1834 25.9823 63.4366 28.4553 61.7233 30.4906C59.9784 32.5633 57.1682 34.2547 53.3393 35.5961L54.0032 37.4837C58.0016 36.0829 61.1867 34.236 63.2542 31.7799C65.3533 29.2864 66.2359 26.2401 65.7485 22.6268L63.7665 22.8911ZM55.2454 12.6136C57.2826 13.341 59.2746 14.8063 60.8359 16.6711C62.3975 18.5363 63.4761 20.7386 63.7665 22.8911L65.7485 22.6268C65.3975 20.0242 64.1193 17.4798 62.3686 15.3887C60.6174 13.2971 58.3415 11.5964 55.9154 10.7302L55.2454 12.6136ZM17.6968 37.182C20.3197 37.0016 23.0292 37.3178 25.5463 38.0902L26.1303 36.1782C23.3811 35.3347 20.4262 34.9894 17.5565 35.1868L17.6968 37.182ZM37.7871 -0.421348C34.4032 0.336761 30.6679 0.549391 27.1574 0.394226L27.0722 2.39225C30.7117 2.55311 34.6301 2.33614 38.2272 1.53028L37.7871 -0.421348ZM37.0363 39.0337C40.0904 38.3648 43.4568 38.2567 46.6781 38.3168L46.7123 36.3171C43.443 36.2562 39.8905 36.3605 36.6055 37.08L37.0363 39.0337ZM10.8915 7.46497C9.15596 9.91 7.32242 12.3116 5.12653 14.1571L6.41476 15.689C8.82103 13.6666 10.7787 11.0817 12.523 8.62425L10.8915 7.46497ZM52.2587 37.907C52.8488 37.8227 53.4349 37.6828 54.0032 37.4837L53.3393 35.5961C52.8995 35.7502 52.4403 35.8603 51.9726 35.9272L52.2587 37.907ZM54.0138 11.3651C54.2134 11.9614 54.6789 12.4113 55.2454 12.6136L55.9154 10.7302C55.9097 10.7282 55.9068 10.7257 55.9062 10.7251C55.9059 10.7248 55.9084 10.7272 55.9102 10.7328L54.0138 11.3651Z" fill="#FFEDED" fill-opacity="0.04" mask="url(#path-1-inside-1_1_147)"/>
<path d="M17.5507 45.7065C17.5507 46.8713 16.4165 47.8155 15.1366 47.8155C13.8566 47.8155 12.8189 46.8713 12.8189 45.7065C12.8189 44.5418 13.76 43.5097 15.04 43.5097C16.32 43.5097 17.5507 44.5418 17.5507 45.7065Z" fill="url(#paint0_linear_1_147)"/>
<path d="M26.3383 45.7065C26.3383 46.8712 25.3007 47.9912 24.0207 47.9912C22.7407 47.9912 21.51 46.8712 21.51 45.7065C21.51 44.5417 22.7407 43.5975 24.0207 43.5975C25.3007 43.5975 26.3383 44.5417 26.3383 45.7065Z" fill="url(#paint1_linear_1_147)"/>
<path d="M21.7031 50.8032C21.7031 51.9679 20.7621 52.9121 19.4821 52.9121C18.2021 52.9121 16.9713 52.0558 16.9713 50.891C16.9713 49.7263 18.2021 48.5184 19.4821 48.5184C20.7621 48.5184 21.7031 49.6384 21.7031 50.8032Z" fill="url(#paint2_linear_1_147)"/>
<path d="M31.0701 50.891C31.0701 52.0558 29.9359 53 28.6559 53C27.376 53 26.2418 52.0558 26.2418 50.891C26.2418 49.7263 27.376 48.6063 28.6559 48.6063C29.9359 48.6063 31.0701 49.7263 31.0701 50.891Z" fill="url(#paint3_linear_1_147)"/>
<path d="M40.244 50.8032C40.244 51.9679 39.2064 52.9121 37.9264 52.9121C36.6464 52.9121 35.7053 52.1437 35.7053 50.9789C35.7053 49.8142 36.8395 48.8699 38.1195 48.8699C39.3995 48.8699 40.244 49.6384 40.244 50.8032Z" fill="url(#paint4_linear_1_147)"/>
<path d="M49.5144 50.8032C49.5144 51.9679 48.5734 52.9121 47.2934 52.9121C46.0134 52.9121 44.8792 51.9679 44.8792 50.8032C44.8792 49.6384 45.8203 48.7821 47.1003 48.7821C48.3802 48.7821 49.5144 49.6384 49.5144 50.8032Z" fill="url(#paint5_linear_1_147)"/>
<path d="M35.4156 45.7065C35.4156 46.8712 34.1849 47.7276 32.9049 47.7276C31.6249 47.7276 30.5873 46.8712 30.5873 45.7065C30.5873 44.5417 31.6249 43.5975 32.9049 43.5975C34.1849 43.5975 35.4156 44.5417 35.4156 45.7065Z" fill="url(#paint6_linear_1_147)"/>
<path d="M44.1067 45.7065C44.1067 46.8712 43.0691 47.8155 41.7891 47.8155C40.5091 47.8155 39.568 46.9591 39.568 45.7944C39.568 44.6296 40.5091 43.6854 41.7891 43.6854C43.0691 43.6854 44.1067 44.5418 44.1067 45.7065Z" fill="url(#paint7_linear_1_147)"/>
<path d="M53.0874 45.5308C53.0874 46.6955 52.0498 47.7276 50.7698 47.7276C49.4898 47.7276 48.4522 46.8712 48.4522 45.7065C48.4522 44.5417 49.3933 43.5975 50.6732 43.5975C51.9532 43.5975 53.0874 44.366 53.0874 45.5308Z" fill="url(#paint8_linear_1_147)"/>
<defs>
<linearGradient id="paint0_linear_1_147" x1="12.8677" y1="42.8867" x2="17.0473" y2="47.4908" gradientUnits="userSpaceOnUse">
<stop stop-color="#CACACA"/>
<stop offset="1" stop-color="#F2F2F2"/>
</linearGradient>
<linearGradient id="paint1_linear_1_147" x1="21.5598" y1="42.9619" x2="25.8247" y2="47.6599" gradientUnits="userSpaceOnUse">
<stop stop-color="#CACACA"/>
<stop offset="1" stop-color="#F2F2F2"/>
</linearGradient>
<linearGradient id="paint2_linear_1_147" x1="17.0201" y1="47.8828" x2="21.2925" y2="52.4949" gradientUnits="userSpaceOnUse">
<stop stop-color="#CACACA"/>
<stop offset="1" stop-color="#F2F2F2"/>
</linearGradient>
<linearGradient id="paint3_linear_1_147" x1="26.2916" y1="47.9706" x2="30.5565" y2="52.6687" gradientUnits="userSpaceOnUse">
<stop stop-color="#CACACA"/>
<stop offset="1" stop-color="#F2F2F2"/>
</linearGradient>
<linearGradient id="paint4_linear_1_147" x1="35.7522" y1="48.2851" x2="39.6668" y2="52.6911" gradientUnits="userSpaceOnUse">
<stop stop-color="#CACACA"/>
<stop offset="1" stop-color="#F2F2F2"/>
</linearGradient>
<linearGradient id="paint5_linear_1_147" x1="44.927" y1="48.1845" x2="48.927" y2="52.6845" gradientUnits="userSpaceOnUse">
<stop stop-color="#CACACA"/>
<stop offset="1" stop-color="#F2F2F2"/>
</linearGradient>
<linearGradient id="paint6_linear_1_147" x1="30.6371" y1="43" x2="34.6147" y2="47.6613" gradientUnits="userSpaceOnUse">
<stop stop-color="#CACACA"/>
<stop offset="1" stop-color="#F2F2F2"/>
</linearGradient>
<linearGradient id="paint7_linear_1_147" x1="39.6148" y1="43.0879" x2="43.6238" y2="47.504" gradientUnits="userSpaceOnUse">
<stop stop-color="#CACACA"/>
<stop offset="1" stop-color="#F2F2F2"/>
</linearGradient>
<linearGradient id="paint8_linear_1_147" x1="48.5" y1="43" x2="52.5" y2="47.5" gradientUnits="userSpaceOnUse">
<stop stop-color="#CACACA"/>
<stop offset="1" stop-color="#F2F2F2"/>
</linearGradient>
</defs>
</svg>
