<svg width="69" height="50" viewBox="0 0 69 50" fill="none" xmlns="http://www.w3.org/2000/svg">
<g filter="url(#filter0_d_1_145)">
<ellipse cx="48.1859" cy="15.4943" rx="16.3183" ry="15.4943" fill="url(#paint0_radial_1_145)" shape-rendering="crispEdges"/>
</g>
<path fill-rule="evenodd" clip-rule="evenodd" d="M55.6092 20.6408C55.2992 20.5191 55.0557 20.2678 54.9578 19.9495V19.9495C52.9018 12.4222 47.2059 7.30533 39.6896 8.21904C39.2667 8.27045 38.8445 8.3415 38.425 8.43106C34.6634 9.234 30.4869 9.5035 26.641 9.42408C24.9158 9.38845 23.1033 9.60543 21.3184 10.0436C16.6903 11.5348 13.445 13.8089 11.4826 17.0347C9.94159 19.5678 8.12466 22.0509 5.9187 24.0319C2.67153 26.9479 -0.250014 31.3423 0.284332 35.6543C1.2004 43.0466 8.03621 48.2985 15.5525 47.3848C16.152 47.3827 16.7235 47.3647 17.2683 47.3315C20.2302 47.1508 23.3015 47.5333 26.1285 48.4365C28.5356 49.2056 31.333 49.6765 34.3264 49.7276C35.0198 49.683 35.7228 49.5829 36.4258 49.4335C39.8459 48.7067 43.6241 48.5455 47.1209 48.544C48.5247 48.5434 50.155 48.4065 52.0507 48.114C52.6199 48.0261 53.1809 47.8801 53.7187 47.6741C61.5119 44.6884 65.6544 39.9757 64.7522 32.6948C64.1125 27.5324 60.0591 22.388 55.6092 20.6408Z" fill="#F8F8F8"/>
<defs>
<filter id="filter0_d_1_145" x="27.8676" y="0" width="40.6366" height="38.9886" filterUnits="userSpaceOnUse" color-interpolation-filters="sRGB">
<feFlood flood-opacity="0" result="BackgroundImageFix"/>
<feColorMatrix in="SourceAlpha" type="matrix" values="0 0 0 0 0 0 0 0 0 0 0 0 0 0 0 0 0 0 127 0" result="hardAlpha"/>
<feOffset dy="4"/>
<feGaussianBlur stdDeviation="2"/>
<feComposite in2="hardAlpha" operator="out"/>
<feColorMatrix type="matrix" values="0 0 0 0 0 0 0 0 0 0 0 0 0 0 0 0 0 0 0.25 0"/>
<feBlend mode="normal" in2="BackgroundImageFix" result="effect1_dropShadow_1_145"/>
<feBlend mode="normal" in="SourceGraphic" in2="effect1_dropShadow_1_145" result="shape"/>
</filter>
<radialGradient id="paint0_radial_1_145" cx="0" cy="0" r="1" gradientUnits="userSpaceOnUse" gradientTransform="translate(48.1859 15.4943) rotate(-31.1263) scale(46.811 48.6196)">
<stop stop-color="#FFE600" stop-opacity="0.98"/>
<stop offset="1" stop-color="#FF9F0E"/>
<stop offset="1" stop-color="#8C5400"/>
</radialGradient>
</defs>
</svg>
