<svg width="16" height="52" viewBox="0 0 16 52" fill="none" xmlns="http://www.w3.org/2000/svg">
<path d="M8.001 51.229C3.725 51.229 0.244995 47.75 0.244995 43.473C0.244995 40.694 1.693 38.19 4.063 36.801V4.708C4.063 2.537 5.83 0.770996 8.001 0.770996C10.172 0.770996 11.938 2.537 11.938 4.708V36.801C14.308 38.19 15.755 40.694 15.755 43.473C15.755 47.75 12.276 51.229 8.001 51.229ZM8.001 2.771C6.933 2.771 6.063 3.64 6.063 4.708V38.026L5.499 38.299C3.492 39.27 2.245 41.252 2.245 43.473C2.245 46.647 4.827 49.229 8.001 49.229C11.174 49.229 13.755 46.647 13.755 43.473C13.755 41.252 12.509 39.27 10.502 38.299L9.938 38.026V4.708C9.938 3.64 9.068 2.771 8.001 2.771Z" fill="black"/>
</svg>
