<svg width="55" height="41" viewBox="0 0 55 41" fill="none" xmlns="http://www.w3.org/2000/svg">
<path d="M26.0929 19.5315C26.0929 20.6777 26.3281 21.8126 26.7851 22.8715C27.2421 23.9304 27.9119 24.8926 28.7562 25.703C29.6006 26.5135 30.6031 27.1564 31.7063 27.595C32.8095 28.0336 33.992 28.2593 35.1861 28.2593C36.3802 28.2593 37.5627 28.0336 38.6659 27.595C39.7692 27.1564 40.7716 26.5135 41.616 25.703C42.4603 24.8926 43.1301 23.9304 43.5871 22.8715C44.0441 21.8126 44.2793 20.6777 44.2793 19.5315C44.2793 18.3853 44.0441 17.2504 43.5871 16.1915C43.1301 15.1326 42.4603 14.1704 41.616 13.36C40.7716 12.5495 39.7692 11.9066 38.6659 11.468C37.5627 11.0294 36.3802 10.8036 35.1861 10.8036C33.992 10.8036 32.8095 11.0294 31.7063 11.468C30.6031 11.9066 29.6006 12.5495 28.7562 13.36C27.9119 14.1704 27.2421 15.1326 26.7851 16.1915C26.3281 17.2504 26.0929 18.3853 26.0929 19.5315Z" fill="#F4CE26"/>
<path d="M35.1861 30.0319C29.1544 30.0319 24.2462 25.3209 24.2462 19.5315C24.2462 13.7421 29.1544 9.03113 35.1861 9.03113C41.2178 9.03113 46.126 13.7421 46.126 19.5315C46.126 25.3209 41.2178 30.0319 35.1861 30.0319ZM35.1861 12.5829C31.1977 12.5829 27.9467 15.6966 27.9467 19.5315C27.9467 23.3664 31.1977 26.4801 35.1861 26.4801C39.1745 26.4801 42.4185 23.3596 42.4185 19.5248C42.4185 15.6899 39.1745 12.5829 35.1861 12.5829Z" fill="#333333"/>
<path d="M26.7881 2.43975C27.6166 1.98146 28.6769 2.25104 29.1544 3.04632L30.8888 5.92415C31.3663 6.71943 31.0854 7.73712 30.2568 8.19541C29.4283 8.65371 28.368 8.38412 27.8905 7.58884L26.1561 4.71101C25.6716 3.909 25.9595 2.89805 26.7881 2.43975ZM48.2536 16.4852C48.4994 17.3748 49.4473 17.9005 50.3742 17.6579L53.7166 16.7952C54.6434 16.5593 55.1911 15.6495 54.9384 14.7598C54.6926 13.8702 53.7447 13.3445 52.8178 13.5871L49.4754 14.4498C48.5556 14.6857 48.0079 15.5955 48.2536 16.4852ZM47.3268 23.9595C47.081 24.8491 47.6287 25.7589 48.5485 25.9948L51.8909 26.8575C52.8178 27.0934 53.7657 26.5677 54.0115 25.6848C54.2572 24.7952 53.7096 23.8853 52.7897 23.6494L49.4473 22.7868C48.5275 22.5509 47.5795 23.0766 47.3268 23.9595ZM38.2757 0C39.2307 0 40.0101 0.741361 40.0101 1.66469V4.98734C40.0101 5.90393 39.2377 6.65203 38.2757 6.65203C37.3207 6.65203 36.5413 5.91067 36.5413 4.98734V1.66469C36.5413 0.748101 37.3137 0 38.2757 0ZM50.0091 4.68406C49.335 4.03705 48.2396 4.03705 47.5585 4.68406L45.1079 7.03619C44.4338 7.6832 44.4338 8.73459 45.1079 9.38833C45.782 10.0353 46.8774 10.0353 47.5585 9.38833L50.0091 7.03619C50.6902 6.38245 50.6902 5.33106 50.0091 4.68406Z" fill="#333333"/>
<path d="M10.1043 39.0226C9.94985 39.036 9.80239 39.0495 9.64791 39.0563C5.39974 39.2854 1.85374 35.7067 1.85374 31.5753C1.85374 27.4438 5.34357 24.0942 9.64791 24.0942C9.94283 24.0942 10.2377 24.1077 10.5256 24.1414C10.5186 23.9864 10.5186 23.8314 10.5186 23.6764C10.5186 17.9409 15.3636 13.2906 21.3392 13.2906C26.6195 13.2906 31.0152 16.9165 31.9701 21.7151C32.4546 21.641 32.9532 21.6006 33.4587 21.6006C38.4793 21.6006 42.5519 25.5096 42.5519 30.3284C42.5379 33.4084 40.8808 36.1178 38.367 37.6679C36.9486 38.544 35.2633 39.1034 33.4517 39.0495C33.206 39.0428 32.9672 39.0293 32.7285 39.0023C32.6512 39.0091 32.567 39.0091 32.4897 39.0091H10.1043V39.0226Z" fill="white"/>
<path d="M9.2547 40.8423C6.97964 40.8423 4.80992 39.9998 3.08256 38.4295C1.12348 36.6502 0 34.1498 0 31.5753C0 26.7699 3.84091 22.8002 8.72807 22.3622C9.4162 16.2762 14.8019 11.5181 21.3251 11.5181C26.8302 11.5181 31.6471 14.9283 33.3464 19.828H33.4447C39.4834 19.828 44.3917 24.5391 44.3917 30.3284C44.3917 33.9206 42.5168 37.2231 39.3711 39.1641C37.5103 40.3166 35.4319 40.8894 33.3956 40.8288C33.1568 40.822 32.9251 40.8086 32.6934 40.7884C32.6232 40.7884 32.5529 40.7951 32.4827 40.7951H10.1956C10.0482 40.8086 9.9007 40.822 9.75324 40.8288C9.58472 40.8355 9.42322 40.8423 9.2547 40.8423ZM9.6409 25.8735C6.36875 25.8735 3.70048 28.4346 3.70048 31.5753C3.70048 33.1793 4.40265 34.7361 5.62444 35.8482C6.72686 36.8524 8.13121 37.3646 9.53557 37.277C9.65494 37.2703 9.78133 37.2635 9.9007 37.25L10.0973 37.2366H32.9111C33.1077 37.2568 33.3043 37.2703 33.5009 37.277C35.1299 37.3309 36.5062 36.7041 37.3558 36.1717C39.4483 34.8912 40.6912 32.7075 40.6912 30.3284C40.6912 26.5003 37.4401 23.3798 33.4517 23.3798C33.0515 23.3798 32.6512 23.4135 32.2651 23.4742L30.4815 23.7573L30.1445 22.0521C29.337 18.0083 25.6365 15.0699 21.3321 15.0699C16.3818 15.0699 12.3583 18.9317 12.3583 23.6831C12.3583 23.8112 12.3583 23.9392 12.3653 24.0673L12.4636 26.1498L10.308 25.9139C10.0903 25.887 9.87261 25.8735 9.6409 25.8735Z" fill="#333333"/>
</svg>
