<svg width="61" height="41" viewBox="0 0 61 41" fill="none" xmlns="http://www.w3.org/2000/svg">
<path d="M1.63084 15.3119H30.1418C30.3199 15.3301 30.4902 15.3741 30.6696 15.3741C34.2801 15.3741 37.2084 11.9859 37.2084 7.80494C37.2084 3.62394 34.2801 0.235779 30.6696 0.235779C27.0578 0.235779 24.1308 3.62394 24.1308 7.80494C24.1308 9.25722 24.5015 10.5988 25.1143 11.751H1.63084H0.0933838V15.2771H1.48547C1.53524 15.2831 1.57845 15.3119 1.63084 15.3119Z" fill="black"/>
<path d="M39.2591 25.1292C39.2158 25.1262 39.1766 25.0974 39.1307 25.0974H2.59198C2.52388 25.0974 2.46495 25.1323 2.39816 25.1429V25.0974H0.09198V28.6766H2.39816V28.6144C2.46495 28.625 2.52257 28.6599 2.59198 28.6599H33.4759C32.8447 29.8242 32.4662 31.1885 32.4662 32.6666C32.4662 36.8461 35.3918 40.2357 39.0037 40.2357C42.6155 40.2357 45.5411 36.8476 45.5411 32.6666C45.5411 28.5902 42.7478 25.2869 39.2591 25.1292Z" fill="black"/>
<path d="M53.5545 6.92865C49.9427 6.92865 47.0171 10.3168 47.0171 14.4978C47.0171 15.9743 47.3955 17.3402 48.0268 18.5045H1.75908C1.71325 18.5045 1.67396 18.5302 1.62944 18.5348V18.4878H0.09198V22.067H1.62944V22.0366C1.67396 22.0412 1.71325 22.067 1.75908 22.067H53.6816C53.7274 22.067 53.7641 22.0412 53.8099 22.0366C57.2986 21.8775 60.092 18.5757 60.092 14.4978C60.092 10.3183 57.1664 6.92865 53.5545 6.92865Z" fill="black"/>
<path d="M16.555 5.55231H0.0935059V8.58422H16.555V5.55231Z" fill="black"/>
<path d="M25.3395 31.1507H0.420654V34.1826H25.3395V31.1507Z" fill="black"/>
</svg>
