<svg width="40" height="40" viewBox="0 0 40 40" fill="none" xmlns="http://www.w3.org/2000/svg">
<path d="M0.985185 22.367C1.29481 22.6794 1.66317 22.9274 2.06903 23.0966C2.4749 23.2659 2.91022 23.353 3.3499 23.353C3.78958 23.353 4.2249 23.2659 4.63077 23.0966C5.03663 22.9274 5.40499 22.6794 5.71461 22.367L16.6723 11.3672L16.6723 36.6667C16.6723 37.5508 17.0232 38.3986 17.6478 39.0237C18.2724 39.6488 19.1195 40 20.0028 40C20.8862 40 21.7333 39.6488 22.3579 39.0237C22.9825 38.3986 23.3334 37.5508 23.3334 36.6667L23.3334 11.3672L34.2911 22.367C34.9182 22.9947 35.7688 23.3473 36.6558 23.3473C37.5427 23.3473 38.3933 22.9947 39.0205 22.367C39.6477 21.7393 40 20.888 40 20.0004C40 19.1127 39.6477 18.2614 39.0205 17.6338L22.3676 0.967425C22.0508 0.663963 21.6773 0.426081 21.2685 0.267436C20.8698 0.0910884 20.4387 -1.25646e-06 20.0028 -1.25646e-06C19.567 -1.25646e-06 19.1359 0.0910884 18.7372 0.267436C18.3284 0.426081 17.9549 0.663963 17.6381 0.967425L0.985185 17.6338C0.673015 17.9436 0.425232 18.3123 0.256143 18.7185C0.0870532 19.1247 -1.89419e-07 19.5604 -1.89419e-07 20.0004C-1.89419e-07 20.4404 0.0870532 20.8761 0.256143 21.2823C0.425232 21.6885 0.673015 22.0571 0.985185 22.367Z" fill="black"/>
</svg>
