<svg width="41" height="40" viewBox="0 0 41 40" fill="none" xmlns="http://www.w3.org/2000/svg">
<path d="M20.5407 40C9.51306 40 0.541016 31.028 0.541016 19.9997C0.541016 8.97206 9.51306 1.52588e-05 20.5407 1.52588e-05C31.569 1.52588e-05 40.541 8.97206 40.541 19.9997C40.541 31.028 31.569 40 20.5407 40ZM20.5407 1.40552C10.2882 1.40552 1.94652 9.7472 1.94652 19.9997C1.94652 30.2528 10.2882 38.5945 20.5407 38.5945C30.7938 38.5945 39.1355 30.2528 39.1355 19.9997C39.1355 9.7472 30.7938 1.40552 20.5407 1.40552Z" fill="black"/>
<path d="M12.2823 28.0834L17.5832 17.0572L28.7633 12.0241L23.6887 22.3813L12.2823 28.0834ZM18.6275 18.1282L15.3295 24.9885L22.6353 21.337L25.7858 14.9061L18.6275 18.1282Z" fill="black"/>
</svg>
